<?xml version="1.0" encoding="utf-8"?>
<!-- Generator: Adobe Illustrator 22.0.1, SVG Export Plug-In . SVG Version: 6.00 Build 0)  -->
<svg version="1.1" id="Layer_1" xmlns="http://www.w3.org/2000/svg" xmlns:xlink="http://www.w3.org/1999/xlink" x="0px" y="0px"
	 viewBox="0 0 222 285.3" style="enable-background:new 0 0 222 285.3;" xml:space="preserve">
<style type="text/css">
	.st0{fill:url(#SVGID_1_);}
	.st1{fill:url(#SVGID_2_);}
</style>
<g id="austronaut_1_">
	
		<linearGradient id="SVGID_1_" gradientUnits="userSpaceOnUse" x1="3.8" y1="560.2076" x2="130.1056" y2="560.2076" gradientTransform="matrix(1 0 0 1 0 -392)">
		<stop  offset="0" style="stop-color:#760094"/>
		<stop  offset="1" style="stop-color:#4400B1"/>
	</linearGradient>
	<path class="st0" d="M47.5,244.7c0-2-0.1-4,0-6c0.7-8.4,0-16-7.3-22.2c-4.9-4.1-7.2-10.6-7.9-17.3c-0.4-3.7-2-5.6-6-6.5
		c-14.8-3.2-22.5-13.2-22.5-28.3c0-7.5,0-14.9,0-22.4c0-16.9,11.5-28.4,28.4-28.3c3.7,0,4.1-0.5,3.3-4.4c-2.9-13.5,0.4-26.1,8.6-37
		C57.7,54.2,76.4,50.6,94.4,55c24.2,5.9,36,27.3,35.7,46.3c-0.3,17.2-8.1,30.8-22.9,40c-2.6,1.6-3.6,3-2.4,6.3
		c2,5.2,2.6,10.8,2.5,16.6c-0.3,9.8,0.2,19.5-0.1,29.3c-0.4,12.1-5.3,22.1-15.1,29.3c-2.4,1.8-3.7,3.6-3.5,6.6
		c0.2,2.1,0.2,4.3,0,6.5c-0.5,6.2,0.4,11.2,5.7,15.8c5.1,4.4,6.1,11,3.7,17.8c-2.6,7.4-7.9,11.7-15.1,12.9c-6,1-12.3,0.8-18.3,0
		c-10-1.3-16.5-9.5-16.9-20.3C47.4,256.3,47.6,250.5,47.5,244.7L47.5,244.7z M45.6,153.6L45.6,153.6c0-4.8,0.1-9.6,0-14.4
		c-0.1-7.5-5.3-13.4-12.4-14.5c-7.7-1.1-15.4,2.9-17.5,9.8c-3.5,11.5-2.3,23.3-1,34.9c1,8.2,10,14.5,16.7,13.3
		c7.7-1.4,15-6.4,14.2-17.2C45.3,161.6,45.6,157.6,45.6,153.6z M63.1,131.6c-0.4-0.7-0.9-1.3-1.3-2c-6.3-10-3-19.4,8.3-22.9
		c2.4-0.8,3.4-2.3,4.2-4.4c4.5-11.5,9-23.1,13.7-34.6c1.2-3-0.3-3.4-2.6-3.6c-16.5-2-33,8.5-38.5,24.5
		C41.3,105.1,47.8,123.3,63.1,131.6z M78.2,191.2L78.2,191.2c0-7.1,0.1-14.2-0.1-21.3c-0.1-4.6-4.3-8.8-8.8-9.2
		c-4.9-0.5-9,2.4-10.1,7.4c-0.5,2.4-0.8,4.9-0.8,7.4c-0.1,10.1-0.1,20.2,0,30.2c0,2.3,0.2,4.6,0.6,6.9c1.1,5.3,5.5,8.7,10.2,8.1
		c5.3-0.6,8.8-4.6,8.9-10.2C78.3,204.1,78.2,197.7,78.2,191.2z M88.5,211.6c5.6-5.2,7.4-10.9,7.6-16.8c0.3-12.1,0.1-24.1,0.1-36.2
		c0-2.2-0.6-4.2-1.2-6.3c-0.8-3.3-2.4-4.4-6-4.1c-9.3,0.9-18.5,0.3-27-4.1c-1.2-0.6-2.8-2.5-3.9-0.9c-1.5,2.2-1.1,5.2-0.2,7.6
		c0.8,2,2.5,0.6,3.8,0.2c15.8-4.5,27.9,8.1,26.8,19.9c-0.7,7.4-0.1,14.9-0.1,22.3C88.5,198.9,88.5,204.7,88.5,211.6z M73.6,272.4
		c2.1,0,4.3,0.2,6.4,0c4.6-0.5,8-4.4,8-8.7c0-4.4-2.9-7.8-7.6-8.4c-4.9-0.6-9.9-0.7-14.8,0.1c-3.8,0.6-6.2,3.1-6.7,7
		c-0.4,3.7,1,6.6,4.5,8.6C66.7,272.9,70.2,272.3,73.6,272.4z M67.7,244.7c11.3-0.1,11.2-0.1,10.5-10.6c-0.2-2.9-1.4-4.4-4.3-3.9
		c-3.5,0.6-6.9,0.4-10.3-0.1c-3.9-0.5-5.2,1.2-5.3,5C58.2,244.9,58.1,244.9,67.7,244.7z M73,136.5c6.3,1.3,12.6,1.8,18.7,0
		c2.5-0.7,6.8-0.5,6.9-3.5c0.1-2.4-4.2-1.1-6.4-2.1c-2.8-1.4-6.1-2.3-8.9-0.2C80.2,133.2,76.6,134.6,73,136.5z M114,85.4
		c0.2-4.1-9.9-13.7-13.9-13.3c-1,0.1-2,0.4-2.3,1.5c-0.4,1.3,0.2,2.4,1.2,3c4.5,2.7,7.8,6.5,10.8,10.6c0.6,0.8,1.5,1.4,2.6,1
		C113.6,87.7,113.9,86.6,114,85.4z"/>
	
		<linearGradient id="SVGID_2_" gradientUnits="userSpaceOnUse" x1="146.0031" y1="430.0239" x2="219.3052" y2="430.0239" gradientTransform="matrix(1 0 0 1 0 -392)">
		<stop  offset="0" style="stop-color:#760094"/>
		<stop  offset="1" style="stop-color:#4400B1"/>
	</linearGradient>
	<path class="st1" d="M219.3,38.2c-0.9,3.7-3.6,5.2-6.8,5.8c-3.5,0.6-6.7,1.9-9.9,3.1c-8.8,3.4-11.6,11.2-13.9,19.3
		c-0.3,1-0.3,2-0.7,2.9c-1.2,2.5-2.3,5.6-5.8,5.3c-3.5-0.2-5.1-3-5.6-6.1c-2.3-14.1-10.3-22.4-24.5-24.7c-2.9-0.5-6.2-1.6-6.2-5.4
		c0-4,3-5.7,6.5-6.3c14-2.3,21.9-10.4,24.2-24.4c0.5-3,1.7-6,5.3-6.3c3.7-0.2,4.9,2.9,6.1,5.6c0.7,1.7,0.9,3.5,1.3,5.3
		c2.7,12.2,11.3,17.6,22.8,19.8C215.6,32.9,218.5,34.5,219.3,38.2z M196.5,38.1c-5.9-2.9-9.6-6.8-12.5-11.5
		c-1.3-2.2-2.2-1.3-3.1,0.2c-2.3,3.9-5.7,6.8-9.3,9.4c-2,1.4-2.5,2.4-0.1,3.9c3.8,2.4,6.9,5.6,9.3,9.4c1.3,2.1,2.5,1.8,3.6-0.2
		C186.9,44.6,190.9,41.3,196.5,38.1z"/>
</g>
</svg>
