<?xml version="1.0" encoding="utf-8"?>
<!-- Generator: Adobe Illustrator 22.0.1, SVG Export Plug-In . SVG Version: 6.00 Build 0)  -->
<svg version="1.1" id="Layer_1" xmlns="http://www.w3.org/2000/svg" xmlns:xlink="http://www.w3.org/1999/xlink" x="0px" y="0px"
	 viewBox="0 0 190.9 232" style="enable-background:new 0 0 190.9 232;" xml:space="preserve">
<style type="text/css">
	.st0{fill:url(#SVGID_1_);}
</style>
<g id="Alien_1_">
	
		<linearGradient id="SVGID_1_" gradientUnits="userSpaceOnUse" x1="23.9274" y1="425.0477" x2="166.7984" y2="567.9187" gradientTransform="matrix(1 0 0 1 0 -392)">
		<stop  offset="0" style="stop-color:#760094"/>
		<stop  offset="1" style="stop-color:#4400B1"/>
	</linearGradient>
	<path class="st0" d="M1.1,102.4c0-38.7,13-65.7,40.6-84.6c21.8-14.8,46-19.3,72-14.4c26.9,5,47.7,18.9,62,42.1
		c12.5,20.3,17,42.4,13.6,66.3c-6,42.1-30.1,73.3-59.8,101.2c-7,6.6-13.8,13.2-23.6,16.2c-12.1,3.7-23.2,1.6-32.6-6
		c-26.6-21.5-48.8-46.6-62.4-78.4C4.3,129.6,0.5,113.8,1.1,102.4z M122.3,153.8c10.6-1,22.3-4.2,31.9-12.9
		c11.4-10.3,19-22.7,21-38.2c0.4-2.8,0.3-5.7-3.1-6.8c-6.2-2-12.4-4.1-19-2.9c-26.1,4.8-39.9,23.1-45.4,46.4
		C104.9,151.6,107.4,153.8,122.3,153.8z M71.3,153.5c3.7,0.1,7.2-0.3,10.6-1.5c2.3-0.8,3.5-1.8,2.9-4.5c-1.9-8.8-3.6-17.5-7.8-25.7
		c-9.7-18.9-34.4-35.5-57.5-26.1c-3.4,1.4-4.5,2.7-3.8,6.4c1.5,7.9,3.5,15.6,7.6,22.5C34,142.9,49.9,152.9,71.3,153.5z"/>
</g>
</svg>
