<svg id="Layer_1" data-name="Layer 1" xmlns="http://www.w3.org/2000/svg" xmlns:xlink="http://www.w3.org/1999/xlink" viewBox="0 0 315.03 197.3"><defs><style>.cls-1{fill:url(#linear-gradient);}.cls-2{fill:url(#linear-gradient-2);}.cls-3{fill:url(#linear-gradient-3);}</style><linearGradient id="linear-gradient" x1="90" y1="1749.8" x2="252.1" y2="1749.8" gradientTransform="translate(0 -1504)" gradientUnits="userSpaceOnUse"><stop offset="0" stop-color="#aae1ff"/><stop offset="1" stop-color="#d0bfff"/></linearGradient><linearGradient id="linear-gradient-2" x1="264.8" y1="1776.3" x2="405.03" y2="1776.3" xlink:href="#linear-gradient"/><linearGradient id="linear-gradient-3" x1="295.6" y1="1675.35" x2="374.1" y2="1675.35" gradientTransform="translate(-90 -1652.9)" xlink:href="#linear-gradient"/></defs><title>behance</title><path class="cls-1" d="M209.2,339.3a68.09,68.09,0,0,0,22-10,48.92,48.92,0,0,0,15.3-17.5c3.8-7.1,5.6-15.6,5.6-25.4,0-12.1-2.9-22.5-8.8-31.1s-14.7-14.6-26.6-18c8.8-4.1,15.3-9.5,19.8-16s6.6-14.7,6.6-24.4c0-9-1.5-16.6-4.4-22.7a37.16,37.16,0,0,0-12.6-14.8,55,55,0,0,0-19.6-8,116,116,0,0,0-25.3-2.5H90V342.7h93.9A100.9,100.9,0,0,0,209.2,339.3ZM132.7,181.8h39.9a56.27,56.27,0,0,1,11,1,26.92,26.92,0,0,1,9.4,3.4,17.7,17.7,0,0,1,6.6,6.7A22.82,22.82,0,0,1,202,204c0,8.1-2.4,14-7.3,17.6s-11.2,5.4-18.8,5.4H132.7V181.8Zm0,127.8V256.2H179c9.2,0,16.6,2.1,22.2,6.4s8.4,11.4,8.4,21.4c0,5.1-.8,9.3-2.6,12.6a19.9,19.9,0,0,1-6.9,7.7,26.87,26.87,0,0,1-10.1,4.1,58.14,58.14,0,0,1-12,1.2Z" transform="translate(-90 -148.9)"/><path class="cls-2" d="M284.1,325.8a64.08,64.08,0,0,0,22.7,15.1,81.23,81.23,0,0,0,29.9,5.3c15.9,0,29.5-3.6,40.6-10.9,11.3-7.3,19.6-19.3,25-36.2H368.4c-1.3,4.3-4.7,8.5-10.3,12.4a34.53,34.53,0,0,1-20.1,5.9c-10.8,0-19.1-2.8-24.9-8.5s-9.5-16.1-9.5-27.2H404.8a100.43,100.43,0,0,0-2.7-31.2,74.68,74.68,0,0,0-12.3-26.6,61.85,61.85,0,0,0-21.9-18.6c-8.9-4.7-19.3-6.9-31.2-6.9a73.27,73.27,0,0,0-29.3,5.7A67.91,67.91,0,0,0,270,243.2a83.22,83.22,0,0,0-5.2,29.3,86.84,86.84,0,0,0,5,29.9A70.14,70.14,0,0,0,284.1,325.8Zm21.2-77.6a27.8,27.8,0,0,1,5.2-9.9,30.51,30.51,0,0,1,9.8-7.7c4.1-2.1,9.2-3.1,15.3-3.1,9.5,0,17.2,2.7,21.8,7.8s8,12.4,8.9,22.2H303.6A38.33,38.33,0,0,1,305.3,248.2Z" transform="translate(-90 -148.9)"/><rect class="cls-3" x="205.6" y="12.9" width="78.5" height="19.1"/></svg>