<?xml version="1.0" encoding="utf-8"?>
<!-- Generator: Adobe Illustrator 22.0.1, SVG Export Plug-In . SVG Version: 6.00 Build 0)  -->
<svg version="1.1" id="Layer_1" xmlns="http://www.w3.org/2000/svg" xmlns:xlink="http://www.w3.org/1999/xlink" x="0px" y="0px"
	 viewBox="0 0 245 201" style="enable-background:new 0 0 245 201;" xml:space="preserve">
<style type="text/css">
	.st0{display:none;fill:url(#SVGID_1_);}
	.st1{fill:url(#SVGID_2_);}
	.st2{fill:url(#SVGID_3_);}
	.st3{fill:url(#SVGID_4_);}
	.st4{fill:url(#SVGID_5_);}
</style>
<g id="Flying_cow_1_">
	
		<radialGradient id="SVGID_1_" cx="123" cy="-1521.6666" r="187" gradientTransform="matrix(1 0 0 -1 0 -1421.3334)" gradientUnits="userSpaceOnUse">
		<stop  offset="0" style="stop-color:#FFFFFF"/>
		<stop  offset="1" style="stop-color:#FFFFFF;stop-opacity:0"/>
	</radialGradient>
	<circle class="st0" cx="123" cy="100.3" r="187"/>
	
		<linearGradient id="SVGID_2_" gradientUnits="userSpaceOnUse" x1="2.3809" y1="2116.2664" x2="243.8933" y2="2116.2664" gradientTransform="matrix(1 0 0 1 0 -2016)">
		<stop  offset="0" style="stop-color:#760094"/>
		<stop  offset="1" style="stop-color:#4400B1"/>
	</linearGradient>
	<path class="st1" d="M123.9,54.7c-7.5-0.1-14.8,0.7-22.3-0.4c-2.4-0.4-3.7,0.6-4.8,2.7c-19.7,37.3-39.4,74.6-59.1,111.9
		c-4.8,9-9.7,18.1-14.4,27.2c-1.3,2.5-2.9,3.7-5.8,3.6c-4.1-0.2-8.2,0-12.3-0.1c-3-0.1-3.5-1-2-3.6c5.4-8.9,10.9-17.9,16.3-26.8
		c13-21.2,26-42.6,39-63.8c9.7-16,19.6-32,29.4-48c2.5-4,2.5-4.4-2.3-4.7c-10.7-0.9-21.2-3.1-31.5-6.2c-5-1.5-10.1-3.2-14-6.9
		c-4.2-3.9-3.9-8.2,0.6-11.8c4.3-3.4,9.4-5.3,14.6-6.8c9.9-2.9,20.1-4.8,30.4-5.7c3.6-0.3,6.9-1.3,9.7-4.5
		c4.5-5.1,10.8-7.2,17.3-8.7c9.9-2.3,19.6-1.6,29.1,1.8c4.8,1.8,9.2,4.3,12.5,8.3c2.5,2.9,6,2.6,9.1,3c13.2,1.6,26.3,3.7,38.6,9.1
		c2.6,1.2,5.2,2.7,7.1,5.1c2.9,3.7,2.6,6.8-0.9,10c-4.2,3.8-9.5,5.4-14.7,7.2c-8.2,2.8-16.6,4-25,5.5c-3.2,0.6-6.6,0.5-9.8,1.2
		c-2.5,0.4-2.1,1.2-1.1,2.8c2.9,4.6,5.7,9.3,8.6,13.9c15.4,25.2,30.8,50.4,46.1,75.5c10.3,16.8,20.4,33.5,30.7,50.3
		c1.6,2.5,1.1,3.6-1.9,3.7c-4.4,0.1-8.8-0.1-13.2,0.1c-2.6,0.1-3.9-1.6-4.8-3.5c-4.1-7.8-8.2-15.5-12.3-23.3
		c-13.2-24.7-26.3-49.5-39.5-74.2c-7.1-13.4-14.3-26.9-21.2-40.4c-1.5-2.9-3.2-3.9-6.7-3.6C136.8,55.1,130.3,54.7,123.9,54.7z"/>
	
		<linearGradient id="SVGID_3_" gradientUnits="userSpaceOnUse" x1="-50.8229" y1="544.0823" x2="21.6203" y2="544.0823" gradientTransform="matrix(0.8504 0.5261 -0.5261 0.8504 427.6802 -300.1599)">
		<stop  offset="0" style="stop-color:#760094"/>
		<stop  offset="1" style="stop-color:#4400B1"/>
	</linearGradient>
	<path class="st2" d="M154.6,181.3c0.1-0.7,0.3-1.3,0.6-1.9c0.8-1.2,1.6-2.5,2.4-3.7c2.9-4.4,5.4-8.9,7.7-13.6
		c1.1-2.1,1.1-4.2,0.1-6.3c-0.8-1.7-1.8-3.2-2.8-4.7c-2.8-4.1-6.4-7.7-9.1-11.8c-0.6-1-1.4-1.9-2.2-2.8c-2.5-1.4-5-2.5-7.5-3.8
		c-0.2-0.1-0.3-0.2-0.4-0.3c-4.9-0.9-9.9-1.5-14.7-3.2c-2.6-1-5.3-0.4-7.5,1.2c-3.5,2.5-6.8,5.1-10.3,7.7c-1.8,1.4-3.8,2.9-6,3.9
		c-1.5,0.6-3.1,1-4.7,0.6c-0.6-0.2-1.4-0.2-1.8,0.3c-1,1.1-1.8,0.8-2.8,0.1c-0.2-0.2-0.4-0.2-0.7-0.3c-0.8-0.4-1.1-0.2-1.1,0.7
		s0.5,1.5,1.1,2.1c0.4,0.3,0.6,0.6,0.2,1.1c-0.4,0.4-0.4,1-0.3,1.5c0.4,1.5,0.3,3.1-0.2,4.6c-0.4,1.5-1.1,2.9-2.2,4.1
		c-0.4,0.4-0.8,1.1-0.3,1.6c1.2,1.2,2.6,2.2,4.5,1.8c0.7-0.2,1.3-0.4,1.9-0.7c0.9-0.4,1.8-1.1,2.7-1.1c1-0.2,1.8-0.6,2.5-1.2
		c0.6-0.5,1.2-1.1,1.8-1.7c0.8-0.8,1.7-1.4,2.9-1.5c0.4,0,0.8-0.3,1.1-0.4c1.2-0.5,2.5-0.5,3.8-0.2c0.8,0.2,1.5,0.6,1.6,1.6
		c0,0.4,0.4,0.6,0.7,0.8c1.1,0.4,1.2,0.9,0.7,1.8c-0.5,1-0.7,1.9-0.5,3c0.2,0.8,0.1,1.6,0,2.4c-0.2,1.8-1,3.5-1.8,5.2
		c-1.1,2.3-0.7,4.1,1.2,5.6c0.7,0.5,1.1,0.4,1.5-0.4c0.3-0.5,0.3-1.1,0.4-1.6c0.2-0.9,0.5-1,1.2-0.4c0.3,0.3,0.6,0.5,0.9,0.8
		c0.4,0.4,0.7,0.4,1.1,0c0.5-0.6,0.9-1.3,1.1-2.1c0.2-0.5,0.1-1.1-0.3-1.5c-0.6-0.8-0.4-1.5,0-2.2c1.5-2.6,2.6-5.4,3.4-8.4
		c0.4-1.7,1-2,2.6-1.8c0.5,0.1,1.1,0.3,1.5,0.4c0.4,0.1,0.8,0.3,1.1,0.2c0.8-0.2,1.1,0.3,1.3,1c0.3,1.5,1.2,2.5,2.4,3.4
		c0.4,0.4,0.8,0.6,1.2,1c0.6,0.5,0.6,1,0.1,1.6c-0.4,0.4-0.4,0.9-0.1,1.4c0.4,0.5,0.4,1-0.4,1.1c-0.3,0.1-0.5,0.3-0.4,0.6
		c0.1,0.4,0.4,0.5,0.6,0.5c0.4,0.1,0.8,0.1,1.1,0.1c-0.1,0.4-0.4,0.4-0.6,0.6c-0.4,0.3-0.5,0.6-0.4,1.1c0.1,0.4,0.5,0.5,0.9,0.6
		c0.2,0,0.4,0,0.4,0.1c0.5,0.1,0.6,0.4,0.4,0.8c-0.8,1.3-1.7,2.5-2.5,3.9c-0.9,1.4-2,2.7-2.5,4.4c-0.2,0.6-0.5,1.1-1.1,1.6
		c-0.8,0.6-1.1,1.6-1.4,2.5c-0.2,0.6,0.2,0.8,0.7,0.7c0.7-0.1,1.3-0.5,1.9-0.9c0.4-0.3,0.7-0.6,0.6-1.3c-0.2-0.8,0.6-1.6,1.4-1.7
		c0.6,0,1.1-0.4,1.4-0.8c0.6-0.9,1.2-1.8,1.8-2.6c0.8-1.1,1.8-2.1,3.2-2.5c0.4-0.1,0.7-0.1,0.5,0.4c-0.4,1.1-0.9,2.3-1.6,3.2
		c-1,1.2-2.1,2.3-3.2,3.4c-1.1,1.1-2.4,2.2-3.2,3.7c-0.5,1.1-1,2.1-0.7,3.3c0.2,0.8,0.4,0.8,1,0.4c0.7-0.5,1.4-1.1,2.2-1.7
		c0.5-0.4,1-0.9,1.2-1.6c0.7-1.5,1.5-3.1,3-3.9s2.9-1.8,4.4-2.5c1.8-0.7,2.8-2,3.5-3.7c0.1-0.1,0.1-0.3,0.2-0.4
		c0.5-1.1,1.3-2,2.6-2.5c2.9-1.1,5.5-2.5,8.1-4.1c0.4-0.3,0.8-0.4,1.3-0.8c-0.1,0.4-0.1,0.5-0.2,0.7c-1.2,3.5-2.7,7-4.6,10.3
		c-0.9,1.5-1.8,3.1-2.4,4.7c-0.3,0.7-0.3,1.4-0.1,2.1c0,0.2,0.1,0.4,0.3,0.4c0.2,0.1,0.4-0.1,0.4-0.3
		C153.9,183.8,154.5,182.7,154.6,181.3z"/>
	
		<linearGradient id="SVGID_4_" gradientUnits="userSpaceOnUse" x1="84.8577" y1="2119.98" x2="101.7052" y2="2119.98" gradientTransform="matrix(1 0 0 1 0 -2016)">
		<stop  offset="0" style="stop-color:#760094"/>
		<stop  offset="1" style="stop-color:#4400B1"/>
	</linearGradient>
	<path class="st3" d="M93.3,112.1c-4.6,0-8.3-3.4-8.4-7.7c-0.1-4.6,4-8.8,8.5-8.6c3.9,0.1,8.2,4.3,8.3,8.2
		C101.8,108.3,97.8,112.1,93.3,112.1z"/>
	
		<linearGradient id="SVGID_5_" gradientUnits="userSpaceOnUse" x1="152.8699" y1="2139.4814" x2="161.4868" y2="2139.4814" gradientTransform="matrix(1 0 0 1 0 -2016)">
		<stop  offset="0" style="stop-color:#760094"/>
		<stop  offset="1" style="stop-color:#4400B1"/>
	</linearGradient>
	<path class="st4" d="M161.4,123.1c0,2.3-2.3,4.6-4.5,4.6c-2,0-4-2.1-4.1-4.2c-0.1-2.5,1.5-4.3,4-4.3
		C159.3,119.1,161.4,120.9,161.4,123.1z"/>
</g>
</svg>
