<?xml version="1.0" encoding="utf-8"?>
<!-- Generator: Adobe Illustrator 22.0.1, SVG Export Plug-In . SVG Version: 6.00 Build 0)  -->
<svg version="1.1" id="Layer_1" xmlns="http://www.w3.org/2000/svg" xmlns:xlink="http://www.w3.org/1999/xlink" x="0px" y="0px"
	 viewBox="0 0 264.5 262.2" style="enable-background:new 0 0 264.5 262.2;" xml:space="preserve">
<style type="text/css">
	.st0{fill:url(#SVGID_1_);}
</style>
<g id="Earth_1_">
	<g>
		
			<linearGradient id="SVGID_1_" gradientUnits="userSpaceOnUse" x1="2.4989" y1="523.9965" x2="262.5084" y2="523.9965" gradientTransform="matrix(1 0 0 1 0 -392)">
			<stop  offset="0" style="stop-color:#760094"/>
			<stop  offset="1" style="stop-color:#4400B1"/>
		</linearGradient>
		<path class="st0" d="M133.2,3.1C59.6,2,2.8,63.5,2.5,133.1C2.2,201.8,64.4,265,132.2,260.7c74.8,2.2,131.1-59.8,130.3-128.4
			C261.7,60.8,206.8,4.2,133.2,3.1z M50.5,45.4c8-4,12-11,19-14c7-4,13,3,13.6,10.5c0.1,0.6,0.2,1.3,0.2,2.1s-0.1,1.6-0.4,2.5
			c-2.4,9.8-4.5,21-18.3,23.3c-0.4-1.4-1-2.8-1.4-4.2c-0.1-0.5-0.2-1-0.3-1.5c-6.5,2.4-13.5,1.4-15.5-5.6
			C46.5,53.4,47.5,47.4,50.5,45.4z M61.3,220.9c-0.8,0.5-2.8,1.5-3.1,3.2c-0.2-0.1-0.5-0.2-0.7-0.3c-12.8-7.6-23.7-20.2-29-34.3
			c-2-8,8-17,14-11c7,5,13,9,20,14c2,2,5,4,6.4,6.7c0.5,0.4,1,0.9,1.5,1.3c2.9,0.7,5.3,2.4,6.8,4.3c0.1,0.1,0.3,0.3,0.4,0.5
			c-0.4,1.7-1.1,2.8-2,3.7c-0.2,0.2-0.4,0.4-0.7,0.6c-0.4,0.6-0.7,1.3-1,1.9c-0.1,0.2-0.2,0.6-0.3,1c-0.5,1.6-1.4,2.5-2.6,3.2
			c-0.2,0.1-0.5,0.2-0.7,0.3C66.5,215.4,64.5,218.4,61.3,220.9L61.3,220.9z M139.9,242.1c-0.4,2.3-0.4,3.3-0.7,5
			c-0.1,0.4-0.3,0.7-0.5,1.1c-2,3.8-6.1,5.9-10.2,5.2c-1.2-0.4-2.4-0.9-3.5-1.4c-0.6-0.3-1.1-0.5-1.7-0.8c-7.8,0.2-14.8-2.8-23-4.8
			c-0.8,0-1.5-0.1-2.3-0.1c-5.7-0.3-11.4-0.9-16.7-2.6c-0.2-0.1-0.4-0.2-0.8-0.3c-2,0-3.6-0.8-4.7-1.9c-0.2-0.2-0.4-0.5-0.6-0.7
			c1.4-1.4,1.7-2.9,1.6-4.4c0-0.3,0-0.6-0.1-0.9c0.8-2.1,1.8-5.1,2.8-7.1c0,0,0.9-2.6,0.9-4.3c0.1-0.2,0.3-0.5,0.4-0.7
			c0.9-1.2,2.1-2.1,3.8-2.9c0.3-0.2,0.5-0.4,0.8-0.6c4.1-3.5,6.5-9.2,8.9-15c4.2-10-4-13.9-9.7-18c-15.2-10.7-28.1-25.2-48.4-27.7
			c-0.8-0.1-1.6-0.2-2.3-0.4c-2.5,5.5-6.5,11.5-13.5,8.5c-2-1-5-3-6-6c-2-7-1-13-1.6-19.8c-0.1-0.8-0.1-1.5-0.2-2.3
			c-0.8-14.5,1-28.5,9.8-40.9c5-8,19-3,17,6c-3,13-9,24-8,38c0,0,0-1,0.4-1c0.6,0.2,1.2,0.3,1.8,0.3c3.1,0.2,6.1-1.5,8.5-4.7
			c4.6-6,8.8-12.3,13.2-18.4c4.7-6.7,7.3-15.1,16.8-17.6c3.5-0.9,5.4-5.1,6.2-9c0.7-3.3,1.3-7.3,4.6-8.6
			c18.2-7.1,15.2-25.8,21.7-39.2c0.3-0.6,0.6-1.2,0.7-1.4c-6.8-6.3-12.8-20.3-1.8-22.3c33-7,64-4,94,11c7,4,8,15-1,18.2
			c-0.5,0.2-1,0-1.5,0.4c-1.5,1.3-3.7,2.7-6.8,4.2c-12.6,6.5-27.4,7.5-39.8,15c-3.3,2-6.1-1.8-8.6-3.9c-6.6-5.5-12.4-3.8-17.4,2.3
			c-2.6,3.2-4.7,7-7.1,10.4c-8.7,12.7-9.9,28.9-19.7,41.1c-1.6,2-2.4,6.3-1.4,8.4c6.3,13.4-0.5,26.3-0.9,39.3
			c-0.3,9.5,3.2,18.4,11.2,20.9c19.5,6.1,22.8,22.3,25.9,37.9c0.4,1.9,0.8,3.6,1.3,5.2c0.3,0.8,0.5,1.5,0.8,2.2
			c1.9,0.8,3.4,2.3,4.7,4.1c0.2,0.3,0.4,0.6,0.6,1C138.5,239.4,139.5,240.4,139.9,242.1L139.9,242.1z M217.5,214.4
			c-1,3-3,4.5-5.4,5.6c-0.6,0.3-1.2,0.5-1.8,0.8c-5.8,8.6-15.8,16.6-27.1,16c-0.5,0.3-1.1,0.6-1.7,1c-2.9,1.8-5.9,3.7-9,5.6
			c-6,2-15,4-18.1-3.5c-0.2-0.4-0.4-0.9-0.5-1.4c-2.3-9.1,6.7-11.1,11.8-15.5c0.3-0.7,0.5-1.4,0.8-2.2c4.9-14.5,6.4-28.9,11.8-42.1
			c2.5-6.2,3.6-8,9.8-2.2c7.2,6.7,11.3,16.3,18.8,22.5c0.6,0.5,1.2,0.9,1.8,1.4C215.5,202.4,219.5,207.4,217.5,214.4z M240.5,145.4
			c-2.1,2.1-4.3,1.4-7-0.3c-0.5-0.3-1.1-0.7-1.6-1.1c-0.5,0-1.1,0.1-1.6,0.2c-0.1,0.5-0.2,1.1-0.3,1.6c-1.5,6.2-3.4,14.4-11.6,4.5
			c-2.1-2.5-6.4-4.4-7.7-2.7c-11.6,14.3-25.9-9.9-39.9,4.6c-13.1,13.5-14.2,29.1-18.4,44.7c-1.3,4.7-0.6,10-4.8,15.9
			c-2.8-7.9-6-13.6-6.8-19.7c-1.8-13.7-7.6-21.9-22.5-21.3c-2.6,0.1-4.8-1.6-5.4-4.4c-0.7-3.4,1.2-5.5,3.9-7.2
			c5.7-3.6,12-3.7,18.3-2.1c6.9,1.7,14,2.8,18-4.4c4.7-8.6,11.6-17.1,8.7-28c-1.8-6.8-8.1-5.9-13.5-6.6c-6.8-0.8-17,3.7-19.5-3.2
			c-2.1-5.6,8.7-8.6,13.5-13c7-6.3,15.5-10.7,21.4-18.6c3.2-4.2,8.3-5.3,13.7-2.5c8.7,4.5,14.6,1.9,19.9-6.4c1.9-3,3.7-5.5,5.5-7.4
			c0.3-0.3,0.6-0.6,0.9-0.9c1-5.6,6-11.6,12-10.6c2,1,5,1,6,3C234.5,85.4,265.5,124.4,240.5,145.4z"/>
	</g>
</g>
</svg>
