<svg id="Layer_1" data-name="Layer 1" xmlns="http://www.w3.org/2000/svg" xmlns:xlink="http://www.w3.org/1999/xlink" viewBox="0 0 252 252"><defs><style>.cls-1{fill:url(#linear-gradient);}.cls-2{fill:url(#linear-gradient-2);}.cls-3{fill:url(#linear-gradient-3);}</style><linearGradient id="linear-gradient" x1="72" y1="1800" x2="324" y2="1800" gradientTransform="translate(0 -1602)" gradientUnits="userSpaceOnUse"><stop offset="0" stop-color="#aae1ff"/><stop offset="1" stop-color="#d0bfff"/></linearGradient><linearGradient id="linear-gradient-2" x1="249.6" y1="1733.1" x2="280.31" y2="1733.1" xlink:href="#linear-gradient"/><linearGradient id="linear-gradient-3" x1="133.1" y1="1800" x2="262.9" y2="1800" xlink:href="#linear-gradient"/></defs><title>instagram</title><path class="cls-1" d="M260.4,72H135.6A63.7,63.7,0,0,0,72,135.6V260.4A63.63,63.63,0,0,0,135.6,324H260.4A63.63,63.63,0,0,0,324,260.4V135.6A63.63,63.63,0,0,0,260.4,72Zm36.2,188.4a36.15,36.15,0,0,1-36.1,36.1H135.6a36.15,36.15,0,0,1-36.1-36.1V135.6a36.15,36.15,0,0,1,36.1-36.1H260.4a36.15,36.15,0,0,1,36.1,36.1l.1,124.8Z" transform="translate(-72 -72)"/><path class="cls-2" d="M265,146.5a15.4,15.4,0,1,1,15.4-15.4A15.41,15.41,0,0,1,265,146.5Z" transform="translate(-72 -72)"/><path class="cls-3" d="M198,133.1A64.9,64.9,0,1,0,262.9,198,65,65,0,0,0,198,133.1Zm0,102.4A37.5,37.5,0,1,1,235.5,198,37.51,37.51,0,0,1,198,235.5Z" transform="translate(-72 -72)"/></svg>