<?xml version="1.0" encoding="utf-8"?>
<!-- Generator: Adobe Illustrator 22.0.1, SVG Export Plug-In . SVG Version: 6.00 Build 0)  -->
<svg version="1.1" id="Layer_1" xmlns="http://www.w3.org/2000/svg" xmlns:xlink="http://www.w3.org/1999/xlink" x="0px" y="0px"
	 viewBox="0 0 155.3 312.4" style="enable-background:new 0 0 155.3 312.4;" xml:space="preserve">
<style type="text/css">
	.st0{fill:url(#SVGID_1_);}
	.st1{fill:url(#SVGID_2_);}
	.st2{fill:url(#SVGID_3_);}
	.st3{fill:url(#SVGID_4_);}
	.st4{fill:url(#SVGID_5_);}
	.st5{fill:url(#SVGID_6_);}
	.st6{fill:url(#SVGID_7_);}
	.st7{fill:url(#SVGID_8_);}
	.st8{fill:url(#SVGID_9_);}
	.st9{fill:url(#SVGID_10_);}
</style>
<title>scroll-down</title>
<linearGradient id="SVGID_1_" gradientUnits="userSpaceOnUse" x1="40.6398" y1="-1574.9833" x2="106.8364" y2="-1574.9833" gradientTransform="matrix(1 0 0 -1 0 -1312.3909)">
	<stop  offset="0" style="stop-color:#AAE1FF"/>
	<stop  offset="1" style="stop-color:#D0BFFF"/>
</linearGradient>
<path class="st0" d="M43.2,245.1c0.8,0.7,1.8,1.5,2.8,2.4c7.9,7.9,16,15.5,23.5,23.7c3.4,3.7,5.3,3.2,8.4-0.2
	c7.5-8,15.4-15.6,23.2-23.3c1.2-1.2,2.5-4.1,4.8-2s-0.2,3.5-1.5,4.9c-9.3,9.3-18.6,18.6-27.8,27.9c-2,2.1-3.5,2.4-5.7,0.2
	c-9.4-9.6-19-19.1-28.5-28.6c-1.1-1.1-2.3-2.1-1.5-3.8C41.2,245.4,42,245.1,43.2,245.1z"/>
<linearGradient id="SVGID_2_" gradientUnits="userSpaceOnUse" x1="40.6014" y1="-1606.1521" x2="106.7906" y2="-1606.1521" gradientTransform="matrix(1 0 0 -1 0 -1312.3909)">
	<stop  offset="0" style="stop-color:#AAE1FF"/>
	<stop  offset="1" style="stop-color:#D0BFFF"/>
</linearGradient>
<path class="st1" d="M42.5,276.2c1.7,0.2,2.5,1.6,3.6,2.6c8.1,8.1,16.4,16.1,24.3,24.4c2.7,2.8,4.1,2.5,6.6-0.1
	c8.1-8.4,16.4-16.5,24.6-24.7c1.2-1.2,2.5-3.5,4.4-1.4c1.8,1.9-0.2,3.3-1.5,4.5c-9.4,9.4-18.9,18.8-28.2,28.3
	c-2.2,2.2-3.6,2-5.7-0.1c-9.3-9.5-18.7-18.9-28.2-28.2c-1-1-2.4-2-1.8-3.8C41,276.8,41.7,276.3,42.5,276.2z"/>
<linearGradient id="SVGID_3_" gradientUnits="userSpaceOnUse" x1="40.4556" y1="-1374.3434" x2="106.85" y2="-1374.3434" gradientTransform="matrix(1 0 0 -1 0 -1312.3909)">
	<stop  offset="0" style="stop-color:#AAE1FF"/>
	<stop  offset="1" style="stop-color:#D0BFFF"/>
</linearGradient>
<path class="st2" d="M106.7,33.5C106.4,15.7,92,1.3,74.2,1C55.9,0.7,40.8,15.2,40.5,33.5c-0.1,9.5,0,19,0,28.5s-0.1,19,0,28.4
	c0,0.1,0,0.1,0,0.2c0.1,18,14.9,32.4,32.8,32.3c18.6,0.1,33.2-14,33.4-32.4C106.9,71.5,106.9,52.5,106.7,33.5z M102.5,89.3
	c-0.1,16.5-13,29.5-29,29.5s-28.7-13-28.9-29.5c0-9.2,0-18.4,0-27.5c0-9.2-0.1-18.3,0-27.5C44.9,17.9,57.3,5.6,73.5,5.6
	c15.7-0.2,28.7,12.4,28.9,28.1c0,0.2,0,0.4,0,0.6C102.7,52.7,102.7,71,102.5,89.3z"/>
<linearGradient id="SVGID_4_" gradientUnits="userSpaceOnUse" x1="66.8896" y1="2604.6145" x2="80.3547" y2="2604.6145" gradientTransform="matrix(1 0 0 1 0 -2576)">
	<stop  offset="0" style="stop-color:#AAE1FF"/>
	<stop  offset="1" style="stop-color:#D0BFFF"/>
</linearGradient>
<path class="st3" d="M80.3,29.3c-0.4,3.6-3.6,6.3-7.3,6c-3.6-0.4-6.3-3.6-6.1-7.3c0.5-3.6,3.7-6.2,7.3-6.1
	C77.8,22.3,80.8,25.9,80.3,29.3z"/>
<g>
	
		<linearGradient id="SVGID_5_" gradientUnits="userSpaceOnUse" x1="3.5312" y1="130.2014" x2="28.7251" y2="130.2014" gradientTransform="matrix(1 0 0 -1 0 311.6092)">
		<stop  offset="0" style="stop-color:#AAE1FF"/>
		<stop  offset="1" style="stop-color:#D0BFFF"/>
	</linearGradient>
	<path class="st4" d="M7.4,201.2c-2.3-2.3-3.5-5.4-3.9-9.2l6.9-2.1c0.4,2.9,1.1,5.1,2.1,6.5s2.5,2.1,4.3,2.1c1.5,0,2.6-0.4,3.4-1.3
		c0.8-0.9,1.2-2,1.2-3.5c0-1.3-0.3-2.5-0.9-3.5c-0.6-1-1.5-2.1-2.8-3.2l-7.7-6.6c-1.8-1.5-3.1-3.1-4.1-4.8s-1.4-3.8-1.4-6.2
		c0-3.5,1-6.2,3.1-8.2c2.1-1.9,4.9-2.9,8.5-2.9c3.4,0,6.1,1.1,8.1,3.3s3.1,5.1,3.4,8.5l-5.6,2.1c-0.4-2.5-1-4.5-1.8-5.8
		s-2.1-2-3.7-2c-1.4,0-2.4,0.4-3.2,1.3c-0.8,0.9-1.2,2-1.2,3.3c0,1.7,0.8,3.2,2.3,4.5l8,7.3c2,1.9,3.6,3.7,4.7,5.5
		c1.1,1.8,1.7,4,1.7,6.6c0,3.7-1.1,6.6-3.4,8.6c-2.2,2-5.3,3-9.1,3C12.6,204.6,9.7,203.5,7.4,201.2z"/>
	
		<linearGradient id="SVGID_6_" gradientUnits="userSpaceOnUse" x1="34.1" y1="130.2046" x2="59.6" y2="130.2046" gradientTransform="matrix(1 0 0 -1 0 311.6092)">
		<stop  offset="0" style="stop-color:#AAE1FF"/>
		<stop  offset="1" style="stop-color:#D0BFFF"/>
	</linearGradient>
	<path class="st5" d="M39.1,202.5c-1.9-1.4-3.2-3.4-3.9-6s-1.1-5.8-1.1-9.8v-10.4c0-4.1,0.4-7.4,1.1-10c0.7-2.6,2-4.6,3.9-6
		s4.7-2.1,8.2-2.1c3.2,0,5.7,0.5,7.5,1.6c1.8,1,3,2.6,3.7,4.6c0.7,2.1,1.1,4.7,1.1,8v2.7H52v-2.7c0-3-0.3-5-1-6.2s-1.9-1.8-3.7-1.8
		c-1.4,0-2.4,0.3-3.1,0.9c-0.7,0.6-1.1,1.6-1.4,3c-0.3,1.4-0.4,3.5-0.4,6.2v14.3c0,2.6,0.2,4.6,0.5,6s0.8,2.3,1.5,2.9
		c0.7,0.5,1.7,0.8,3,0.8c1.9,0,3.2-0.6,3.7-1.9c0.6-1.3,0.9-3.2,0.9-5.9V187h7.6v3.1c0,4.9-0.9,8.5-2.7,10.9s-5,3.6-9.6,3.6
		C43.8,204.6,41,203.9,39.1,202.5z"/>
	
		<linearGradient id="SVGID_7_" gradientUnits="userSpaceOnUse" x1="67.2563" y1="130.4546" x2="86.9111" y2="130.4546" gradientTransform="matrix(1 0 0 -1 0 311.6092)">
		<stop  offset="0" style="stop-color:#AAE1FF"/>
		<stop  offset="1" style="stop-color:#D0BFFF"/>
	</linearGradient>
	<path class="st6" d="M67.3,158.9h8.3v6.4c1.6-2.5,3.2-4.3,4.8-5.4c1.6-1,3.4-1.6,5.2-1.6c0.5,0,0.9,0,1.3,0.1v9.2
		c-1.7-0.6-3.2-0.9-4.6-0.9c-1.4,0-2.6,0.3-3.6,1c-1.1,0.7-2.1,1.8-3.1,3.4V204h-8.3L67.3,158.9L67.3,158.9z"/>
	
		<linearGradient id="SVGID_8_" gradientUnits="userSpaceOnUse" x1="91.3" y1="130.1546" x2="117.6" y2="130.1546" gradientTransform="matrix(1 0 0 -1 0 311.6092)">
		<stop  offset="0" style="stop-color:#AAE1FF"/>
		<stop  offset="1" style="stop-color:#D0BFFF"/>
	</linearGradient>
	<path class="st7" d="M94.3,200.4c-2-2.8-3-7-3-12.4v-13.1c0-5.4,1-9.5,3-12.4c2-2.8,5.4-4.3,10.2-4.3c4.7,0,8.1,1.4,10.1,4.3
		c2,2.8,3,7,3,12.4V188c0,5.4-1,9.5-3,12.4c-2,2.8-5.4,4.3-10.1,4.3C99.7,204.6,96.3,203.2,94.3,200.4z M107.7,197.1
		c0.7-0.9,1.1-2,1.2-3.3c0.2-1.3,0.2-3.1,0.2-5.3v-14.1c0-2.2-0.1-4-0.2-5.3c-0.2-1.3-0.6-2.4-1.2-3.3c-0.7-0.9-1.8-1.3-3.3-1.3
		s-2.6,0.4-3.3,1.3c-0.7,0.9-1.1,2-1.3,3.3s-0.2,3.1-0.2,5.3v14.1c0,2.2,0.1,4,0.2,5.3c0.2,1.3,0.6,2.4,1.3,3.3
		c0.7,0.9,1.8,1.3,3.3,1.3C106,198.4,107.1,198,107.7,197.1z"/>
	
		<linearGradient id="SVGID_9_" gradientUnits="userSpaceOnUse" x1="125.9893" y1="139.2046" x2="134.335" y2="139.2046" gradientTransform="matrix(1 0 0 -1 0 311.6092)">
		<stop  offset="0" style="stop-color:#AAE1FF"/>
		<stop  offset="1" style="stop-color:#D0BFFF"/>
	</linearGradient>
	<path class="st8" d="M126,140.8h8.3V204H126V140.8z"/>
	
		<linearGradient id="SVGID_10_" gradientUnits="userSpaceOnUse" x1="143.8506" y1="139.2046" x2="152.1963" y2="139.2046" gradientTransform="matrix(1 0 0 -1 0 311.6092)">
		<stop  offset="0" style="stop-color:#AAE1FF"/>
		<stop  offset="1" style="stop-color:#D0BFFF"/>
	</linearGradient>
	<path class="st9" d="M143.9,140.8h8.3V204h-8.3L143.9,140.8L143.9,140.8z"/>
</g>
</svg>
