<?xml version="1.0" encoding="utf-8"?>
<!-- Generator: Adobe Illustrator 22.0.1, SVG Export Plug-In . SVG Version: 6.00 Build 0)  -->
<svg version="1.1" id="Layer_1" xmlns="http://www.w3.org/2000/svg" xmlns:xlink="http://www.w3.org/1999/xlink" x="0px" y="0px"
	 viewBox="0 0 225.9 184.9" style="enable-background:new 0 0 225.9 184.9;" xml:space="preserve">
<style type="text/css">
	.st0{display:none;fill:url(#SVGID_1_);}
	.st1{fill:url(#SVGID_2_);}
	.st2{fill:url(#SVGID_3_);}
	.st3{fill:url(#SVGID_4_);}
	.st4{fill:url(#SVGID_5_);}
	.st5{fill:url(#SVGID_6_);}
	.st6{fill:url(#SVGID_7_);}
	.st7{fill:url(#SVGID_8_);}
	.st8{fill:url(#SVGID_9_);}
	.st9{fill:url(#SVGID_10_);}
	.st10{fill:url(#SVGID_11_);}
	.st11{fill:url(#SVGID_12_);}
	.st12{fill:url(#SVGID_13_);}
	.st13{fill:url(#SVGID_14_);}
	.st14{fill:url(#SVGID_15_);}
	.st15{fill:url(#SVGID_16_);}
	.st16{fill:url(#SVGID_17_);}
	.st17{fill:url(#SVGID_18_);}
</style>
<g id="constellation_1_">
	
		<radialGradient id="SVGID_1_" cx="108" cy="480" r="187" gradientTransform="matrix(1 0 0 1 0 -392)" gradientUnits="userSpaceOnUse">
		<stop  offset="0" style="stop-color:#FFFFFF"/>
		<stop  offset="1" style="stop-color:#FFFFFF;stop-opacity:0"/>
	</radialGradient>
	<circle class="st0" cx="108" cy="88" r="187"/>
	<g>
		
			<linearGradient id="SVGID_2_" gradientUnits="userSpaceOnUse" x1="20.495" y1="-1561.718" x2="177.5" y2="-1561.718" gradientTransform="matrix(1 0 0 -1 0 -1446)">
			<stop  offset="0" style="stop-color:#760094"/>
			<stop  offset="1" style="stop-color:#4400B1"/>
		</linearGradient>
		<path class="st1" d="M177.5,145.9c-12.5,16.5-28.2,27.5-48.5,33.6c-21.1,6.4-40.8,3.4-59.5-5.2c-13.7-6.4-25.5-16.4-34.1-30.2
			c-9.3-15-15.1-30.3-14.9-47.6C20.7,83.4,23,70.7,29.3,59c1.2-2.1,2.1-4.1,2.2-6.4c6.5-3.3,13.9-2.2,20.7-4.1
			c4.5,2.4,9.1,5.2,14.3,1.3c10.3,4.8,19.6,11.7,30.6,15c4.1,10.9,6.4,12.4,15.2,9.1c7,3.3,12.9,8.8,20.7,10.7c2.7,3-1.1,9.8,6,10.3
			c0.8,11.3,1.7,22.6,2.5,33.9c-6,3.8-3.8,10.4-1.2,13c3.2,3.1,9.8,5.4,13.5-1.7C161.9,142.1,169.7,144,177.5,145.9z"/>
		
			<linearGradient id="SVGID_3_" gradientUnits="userSpaceOnUse" x1="148.081" y1="-1558.7576" x2="198.4759" y2="-1558.7576" gradientTransform="matrix(1 0 0 -1 0 -1446)">
			<stop  offset="0" style="stop-color:#760094"/>
			<stop  offset="1" style="stop-color:#4400B1"/>
		</linearGradient>
		<path class="st2" d="M198.4,100.1c0.3,4,0.2,16.3-10,34.5c-0.4,0.7-1.2,1.2-2.1,1l-23.5-4c-0.4-0.1-0.8-0.2-1.1-0.6l-7.8-7.9
			c-0.2-0.2-0.5-0.7-0.5-1l-5.3-26.3c-0.1-0.6,0.2-1.2,0.8-1.3l5.1-1.6c0.8-0.2,1.4-1,1.4-1.8l0,0c0.1-1.2,1.6-1.3,2.7-1.2
			c7.9,1.5,33.9,5.8,34.6,6.6c0.6,0.7,2.7,1.4,4.1,1.8C197.8,98.6,198.4,99.3,198.4,100.1z"/>
		
			<linearGradient id="SVGID_4_" gradientUnits="userSpaceOnUse" x1="48" y1="-1490.2045" x2="196.3313" y2="-1490.2045" gradientTransform="matrix(1 0 0 -1 0 -1446)">
			<stop  offset="0" style="stop-color:#760094"/>
			<stop  offset="1" style="stop-color:#4400B1"/>
		</linearGradient>
		<path class="st3" d="M48,34.5c2.3-9.8,10.8-13.7,18.2-18.2c27-16.5,55.8-16.6,83.5-3.5c21.7,10.3,36.1,28.9,43.6,52.1
			c1.7,5,4.5,14.3,2.1,20.1c-13.6-1.2-24.5-3.8-38-5c-3.9-3.5-9.9-10.5-16-7c-7-3.6-14.1-7.2-21.1-10.8c-1.7-8.8-6.9-11.7-15.4-8.9
			c-9.3-7.3-20.3-11.2-30.4-17c-8.7-10.6-8.7-10.6-18.6-2.7C53.2,33.8,50.7,34.2,48,34.5z"/>
	</g>
	<g>
		
			<linearGradient id="SVGID_5_" gradientUnits="userSpaceOnUse" x1="-11.0305" y1="-800.9331" x2="6.5381" y2="-800.9331" gradientTransform="matrix(0.9784 0.2069 0.2069 -0.9784 364.5651 -640.9964)">
			<stop  offset="0" style="stop-color:#760094"/>
			<stop  offset="1" style="stop-color:#4400B1"/>
		</linearGradient>
		<path class="st4" d="M188.4,143.7c0.1-2.3,0.2-4.6,0.3-6.9c2.6-1.2,6.1-0.5,8-3.5c1.8,0.8,3.7,1.7,5.5,2.6c2.9,3.8,4.6,7.4,0.7,12
			c-1.8,2.1-2.8,4-6,3.2C192.8,150.2,188.4,149.6,188.4,143.7z"/>
		
			<linearGradient id="SVGID_6_" gradientUnits="userSpaceOnUse" x1="-1.5474" y1="-747.9305" x2="15.9652" y2="-747.9305" gradientTransform="matrix(0.9784 0.2069 0.2069 -0.9784 364.5651 -640.9964)">
			<stop  offset="0" style="stop-color:#760094"/>
			<stop  offset="1" style="stop-color:#4400B1"/>
		</linearGradient>
		<path class="st5" d="M216.7,100.7c-2.3-0.4-4.6-0.8-7-1.2c-0.4-1.9-0.7-3.7-1.2-5.6c0.2-2.2,0.3-4.5,0.4-6.8
			c4-0.9,7.7-5.5,11.8-2.1c2.1,1.7,6.5,3.8,4.9,7.3C224,95.8,223.4,101.9,216.7,100.7z"/>
		
			<linearGradient id="SVGID_7_" gradientUnits="userSpaceOnUse" x1="-211.1916" y1="-749.1342" x2="-192.9108" y2="-749.1342" gradientTransform="matrix(0.9784 0.2069 0.2069 -0.9784 364.5651 -640.9964)">
			<stop  offset="0" style="stop-color:#760094"/>
			<stop  offset="1" style="stop-color:#4400B1"/>
		</linearGradient>
		<path class="st6" d="M17.4,44.7c1.2,2.1,2.4,4.1,3.6,6.2c-3.9,1.7-2.5,9.9-9.3,7.7c-3-0.9-7.8,0.2-7.8-4.8c0-3-2.9-7.2,1.7-9.1
			C9.4,43.2,13.5,38.9,17.4,44.7z"/>
		
			<linearGradient id="SVGID_8_" gradientUnits="userSpaceOnUse" x1="-113.4779" y1="-742.5843" x2="-94.2292" y2="-742.5843" gradientTransform="matrix(0.9784 0.2069 0.2069 -0.9784 364.5651 -640.9964)">
			<stop  offset="0" style="stop-color:#760094"/>
			<stop  offset="1" style="stop-color:#4400B1"/>
		</linearGradient>
		<path class="st7" d="M100,61.7c1.2-1.7,2.3-3.4,3.5-5c8.4-2.7,13.6,0.1,15.4,8.9c-3.7,0-3.1,3-3.6,5.2
			C106.5,74.1,104,72.6,100,61.7z"/>
		
			<linearGradient id="SVGID_9_" gradientUnits="userSpaceOnUse" x1="-59.3909" y1="-800.7569" x2="-42.1741" y2="-800.7569" gradientTransform="matrix(0.9784 0.2069 0.2069 -0.9784 364.5651 -640.9964)">
			<stop  offset="0" style="stop-color:#760094"/>
			<stop  offset="1" style="stop-color:#4400B1"/>
		</linearGradient>
		<path class="st8" d="M144.4,125.7c2.6-1,5.1-1.9,7.7-2.9c1.7,2.8,3.6,5.5,6.4,7.4c-0.6,2.3-1.2,4.6-1.7,6.9
			c-3.6,7-10.3,4.8-13.5,1.7C140.6,136.2,138.3,129.6,144.4,125.7z"/>
		
			<linearGradient id="SVGID_10_" gradientUnits="userSpaceOnUse" x1="-74.2359" y1="-754.4765" x2="-56.741" y2="-754.4765" gradientTransform="matrix(0.9784 0.2069 0.2069 -0.9784 364.5651 -640.9964)">
			<stop  offset="0" style="stop-color:#760094"/>
			<stop  offset="1" style="stop-color:#4400B1"/>
		</linearGradient>
		<path class="st9" d="M149.4,92.4c-2.5-0.1-5-1.7-7.5-0.6c-7.1-0.4-3.3-7.3-6-10.3c1.3-1.7,2.7-3.5,4.1-5.2c6-3.5,9.8,0.7,13.6,4.1
			c-0.3,2.3-0.7,4.6-1,6.9C151.5,89.1,150.5,90.7,149.4,92.4z"/>
		
			<linearGradient id="SVGID_11_" gradientUnits="userSpaceOnUse" x1="-163.2391" y1="-728.461" x2="-144.4397" y2="-728.461" gradientTransform="matrix(0.9784 0.2069 0.2069 -0.9784 364.5651 -640.9964)">
			<stop  offset="0" style="stop-color:#760094"/>
			<stop  offset="1" style="stop-color:#4400B1"/>
		</linearGradient>
		<path class="st10" d="M73,39.7c-1.4,2.2-3.6,4.1-3.6,6.9c-5.1,3.9-9.7,1.1-14.3-1.3c1.4-3,0.2-5.6-0.7-8.4
			C64.3,29.1,64.3,29.1,73,39.7z"/>
		
			<linearGradient id="SVGID_12_" gradientUnits="userSpaceOnUse" x1="-56.1446" y1="-753.6377" x2="0.4452" y2="-753.6377" gradientTransform="matrix(0.9784 0.2069 0.2069 -0.9784 364.5651 -640.9964)">
			<stop  offset="0" style="stop-color:#760094"/>
			<stop  offset="1" style="stop-color:#4400B1"/>
		</linearGradient>
		<path class="st11" d="M153.8,84.3c13.4,2.1,26.8,4.1,40.3,6.1c4.9,1,9.8,2,14.7,3c0.1,1.2,0.2,2.2,0.2,3.4
			c-4.1-0.6-8.3-1.7-12.3-1.7c-14.4-2.5-28.8-5-43.2-7.4C153.6,86.6,153.7,85.5,153.8,84.3z"/>
		
			<linearGradient id="SVGID_13_" gradientUnits="userSpaceOnUse" x1="1.1667" y1="-774.3182" x2="8.4651" y2="-774.3182" gradientTransform="matrix(0.9784 0.2069 0.2069 -0.9784 364.5651 -640.9964)">
			<stop  offset="0" style="stop-color:#760094"/>
			<stop  offset="1" style="stop-color:#4400B1"/>
		</linearGradient>
		<path class="st12" d="M215.7,103.9c-2.9,9.6-5.1,19.5-9.9,28.1c-1.1-0.6-2.1-1.2-3.1-1.7c2.1-9.4,6.3-17.9,9-27
			C213,103.4,214.4,103.6,215.7,103.9z"/>
		
			<linearGradient id="SVGID_14_" gradientUnits="userSpaceOnUse" x1="-197.1907" y1="-737.9802" x2="-161.0022" y2="-737.9802" gradientTransform="matrix(0.9784 0.2069 0.2069 -0.9784 364.5651 -640.9964)">
			<stop  offset="0" style="stop-color:#760094"/>
			<stop  offset="1" style="stop-color:#4400B1"/>
		</linearGradient>
		<path class="st13" d="M45.1,41.1c2.5-0.2,5-0.3,7.5-0.5c1.4,1.4,3.1,2.8,2.2,4.3c-6.3,0.9-13.7,0.3-19.4,2.1
			c-4.2,0.2-8.5,0.5-12.7,0.8c-1.6-1.1-3.1-2.1-4.6-3.2C27,43.3,36.6,42.9,45.1,41.1z"/>
		
			<linearGradient id="SVGID_15_" gradientUnits="userSpaceOnUse" x1="-42.0978" y1="-800.2964" x2="-12.4013" y2="-800.2964" gradientTransform="matrix(0.9784 0.2069 0.2069 -0.9784 364.5651 -640.9964)">
			<stop  offset="0" style="stop-color:#760094"/>
			<stop  offset="1" style="stop-color:#4400B1"/>
		</linearGradient>
		<path class="st14" d="M179,139.6c-7.2-1.7-14.4-3.2-21.5-4.9c0.2-0.9,0.6-1.8,0.8-2.7c8.2,1.6,16.5,3.1,24.6,4.8
			c1.1,0.4,2.1,0.8,3.2,1.2c0.2,1,0.2,2,0.4,2.9C184,140.5,181.6,140,179,139.6z"/>
		
			<linearGradient id="SVGID_16_" gradientUnits="userSpaceOnUse" x1="-65.2682" y1="-778.4453" x2="-53.731" y2="-778.4453" gradientTransform="matrix(0.9784 0.2069 0.2069 -0.9784 364.5651 -640.9964)">
			<stop  offset="0" style="stop-color:#760094"/>
			<stop  offset="1" style="stop-color:#4400B1"/>
		</linearGradient>
		<path class="st15" d="M145.3,121.8c-1.1-8.8-2.1-17.6-3.1-26.5c1.2-1.2,2.6-0.2,3.8-0.3c1.2,7.9,2.6,15.6,3,23.7
			C147.7,119.7,146.5,120.7,145.3,121.8z"/>
		
			<linearGradient id="SVGID_17_" gradientUnits="userSpaceOnUse" x1="-146.6583" y1="-734.1352" x2="-111.15" y2="-734.1352" gradientTransform="matrix(0.9784 0.2069 0.2069 -0.9784 364.5651 -640.9964)">
			<stop  offset="0" style="stop-color:#760094"/>
			<stop  offset="1" style="stop-color:#4400B1"/>
		</linearGradient>
		<path class="st16" d="M72.2,43.5c10.5,4.1,21.7,7.2,31.5,11.9c-1,0.7-1.9,1.6-2.9,2.3c-11.1-2.9-20.9-7.4-31.5-11
			C69,45.2,71.1,44.5,72.2,43.5z"/>
		
			<linearGradient id="SVGID_18_" gradientUnits="userSpaceOnUse" x1="-96.635" y1="-748.0387" x2="-71.4389" y2="-748.0387" gradientTransform="matrix(0.9784 0.2069 0.2069 -0.9784 364.5651 -640.9964)">
			<stop  offset="0" style="stop-color:#760094"/>
			<stop  offset="1" style="stop-color:#4400B1"/>
		</linearGradient>
		<path class="st17" d="M139.6,77.3c-1.2,0.7-2.6,1.3-3.8,2c-7.6-2.5-13.4-6.5-20.3-9.6c0.4-1.1-0.2-2.8,3.4-2.1
			C125.8,70.9,132.7,74.1,139.6,77.3z"/>
	</g>
</g>
</svg>
