<?xml version="1.0" encoding="utf-8"?>
<!-- Generator: Adobe Illustrator 22.0.1, SVG Export Plug-In . SVG Version: 6.00 Build 0)  -->
<svg version="1.1" id="Layer_1" xmlns="http://www.w3.org/2000/svg" xmlns:xlink="http://www.w3.org/1999/xlink" x="0px" y="0px"
	 viewBox="0 0 254.3 277.4" style="enable-background:new 0 0 254.3 277.4;" xml:space="preserve">
<style type="text/css">
	.st0{fill:none;stroke:url(#SVGID_1_);stroke-width:13;stroke-linecap:round;stroke-miterlimit:10;}
	.st1{fill:url(#SVGID_2_);}
	.st2{fill:none;stroke:url(#SVGID_3_);stroke-width:6;stroke-linecap:round;stroke-miterlimit:10;}
	.st3{fill:url(#SVGID_4_);}
	.st4{fill:url(#SVGID_5_);}
</style>
<g id="solar_system_1_">
	<g>
		
			<linearGradient id="SVGID_1_" gradientUnits="userSpaceOnUse" x1="102.1643" y1="623.3076" x2="138.0392" y2="659.1826" gradientTransform="matrix(1 0 0 1 0 -392)">
			<stop  offset="0" style="stop-color:#760094"/>
			<stop  offset="1" style="stop-color:#4400B1"/>
		</linearGradient>
		<path class="st0" d="M116.4,230.5c-6.5,2.4-12.4,6-14.2,13c-2.1,8.5-1,16.3,9.1,22.5c5.8,3.6,16.1,2.9,21.7-3.1
			c6.1-6.5,8.1-13.3,4.5-20.8c-3.5-7.4-9.3-11.9-18-11.6c-0.9,0-1.8,0-2.8,0"/>
		<g>
			
				<linearGradient id="SVGID_2_" gradientUnits="userSpaceOnUse" x1="95.9924" y1="492.4912" x2="156.7718" y2="553.2706" gradientTransform="matrix(1 0 0 1 0 -392)">
				<stop  offset="0" style="stop-color:#760094"/>
				<stop  offset="1" style="stop-color:#4400B1"/>
			</linearGradient>
			<path class="st1" d="M121.9,88.1C105.6,90.8,93,99.2,87,114.5c-11.1,28.4,7.5,56.5,35.9,59.2c22.8,2.1,42.3-14.6,45.9-35.2
				c3.7-21.1-8.2-40-27.4-48c-5.9-2.4-12.4-3-18.9-2.4"/>
			
				<linearGradient id="SVGID_3_" gradientUnits="userSpaceOnUse" x1="106.6671" y1="501.1881" x2="118.5804" y2="513.1012" gradientTransform="matrix(1 0 0 1 0 -392)">
				<stop  offset="0" style="stop-color:#AAE1FF"/>
				<stop  offset="1" style="stop-color:#D0BFFF"/>
			</linearGradient>
			<path class="st2" d="M131.1,104.3c-7.2,0.4-14.2,0.5-20.4,5.4c-7.3,5.7-10.5,13-11,21.9"/>
		</g>
		
			<linearGradient id="SVGID_4_" gradientUnits="userSpaceOnUse" x1="22.699" y1="523.0278" x2="216.4264" y2="523.0278" gradientTransform="matrix(1 0 0 1 0 -392)">
			<stop  offset="0" style="stop-color:#760094"/>
			<stop  offset="1" style="stop-color:#4400B1"/>
		</linearGradient>
		<path class="st3" d="M216.4,129.1c-0.6-23-8.6-42.7-23.8-58.8C180.3,57.4,166.7,49,151,44.7c-20.4-5.5-40.3-4.3-59.2,3.6
			c-2.2,0.9-4,1.6-5.5,1.5c-2.8-0.2-5.2,1.8-5.4,4.6c-0.2,2.8,1.8,5.2,4.6,5.4c4.1,0.3,7.6-1.1,10.2-2.2c17-7.1,34.3-8.2,52.7-3.1
			c13.9,3.8,25.9,11.2,36.9,22.8c13.5,14.2,20.6,31.7,21.1,52.2c0.5,18.5-5.4,35.8-17.6,51.4c-19.6,25.2-55.4,36.3-85.2,26.4
			c-28.2-9.3-45.6-26.9-53-53.6c4.8-2.9,9.5-6.4,12.1-12.2c4-9-0.2-20.6-9.5-25.8c-1.4-0.8-2.9-1.4-4.3-2c0-0.9,0.1-1.8,0.2-2.4
			c2.7-8.6,5.8-17.7,11.6-25.2c3-3.8,4.2-7.9,3.7-12.4c-0.3-2.7-2.7-4.7-5.5-4.5c-2.7,0.3-4.7,2.7-4.5,5.5c0.2,1.9-0.3,3.5-1.7,5.2
			c-6.9,8.8-10.5,19.3-13.3,28.4c-0.6,1.8-0.7,3.5-0.7,5.1c-4.8,1.8-9.4,4.3-12.7,9.3c-3.5,5.4-4.3,12.3-2,18.4
			c2.3,6,7.1,10.5,13.2,12.2c0.4,0.1,0.9,0.3,1.5,0.6c0.5,0.2,1,0.4,1.6,0.7c8.1,30.7,28.2,51.6,60,62.1c8.3,2.7,17,4.1,25.7,4.1
			c26.8,0,53.9-12.4,70.6-33.8C210.3,169.4,216.9,150,216.4,129.1z M33.5,137.7c-1.2-3.2-0.8-6.6,1-9.4c2-3.1,5.2-4.5,9.1-5.9
			c0.3,0.1,0.5,0.2,0.8,0.3c1.4,0.5,2.7,1.1,3.8,1.7c4.7,2.7,7.2,8.7,5.3,13c-1.5,3.3-4.4,5.5-8.6,8c-0.2,0.1-0.2,0.1-0.2,0.1
			c-0.3,0-1.3-0.4-1.9-0.7c-0.8-0.4-1.7-0.7-2.8-1C37,142.9,34.6,140.7,33.5,137.7z"/>
		
			<linearGradient id="SVGID_5_" gradientUnits="userSpaceOnUse" x1="1.8341" y1="519.3354" x2="251.3035" y2="519.3354" gradientTransform="matrix(1 0 0 1 0 -392)">
			<stop  offset="0" style="stop-color:#760094"/>
			<stop  offset="1" style="stop-color:#4400B1"/>
		</linearGradient>
		<path class="st4" d="M250.4,116.5c-2.3-19.6-9-37.8-19.9-54.2c-5.6-8.5-12.4-15.5-19.1-22.3c2-4.7,3.9-10.4,2.4-17.1
			C210.9,10.3,203,5.4,196.9,3.4c-8.8-2.8-17.3-1.3-25.2,4.4c-2.1,1.5-3.8,3.2-5.2,5.1c-16.7-6.3-35.4-8.2-55.5-5.5
			c-45,6-78.3,30.6-98.7,73.3c-7.5,15.7-11,33-10.4,51.5c1.4,42.7,19.6,76.7,53.9,101.3c7.5,5.4,15.4,9.2,22.8,12.6
			c1.6,0.7,3.8,1.6,6.4,1.6c1.2,0,2.5-0.2,3.8-0.6c3.4-1.1,5.3-4.8,4.2-8.2c-1.1-3.4-4.7-5.2-8.1-4.2c-0.1,0-0.4-0.1-1-0.4
			c-6.8-3.1-14.1-6.6-20.7-11.4c-30.9-22.1-47.2-52.7-48.5-91.1c-0.5-16.3,2.5-31.6,9.1-45.4c18.4-38.5,48.3-60.7,88.7-66.1
			c18.2-2.4,34.8-0.7,49.6,4.9c-0.1,2.2,0.1,4.6,0.5,7.1c1.4,8,6.6,15,13.8,18.7c3.7,1.9,7.7,2.8,11.7,2.8c4.1,0,8.3-1,12.3-2.9
			c0.8-0.4,1.5-0.9,2.1-1.3c6.3,6.4,12.2,12.6,17,19.8c9.9,14.9,15.7,30.8,17.8,48.6c2.8,23.8-1.9,46.7-14,68.2
			c-13,23.1-32.1,39.4-58.3,49.8c-2.7,1.1-5.7,1.9-8.8,2.7c-1.5,0.4-3,0.8-4.6,1.3c-3.4,1-5.4,4.7-4.4,8.1c0.8,2.8,3.4,4.6,6.2,4.6
			c0.6,0,1.2-0.1,1.9-0.3c1.4-0.4,2.8-0.8,4.3-1.2c3.3-0.9,6.7-1.8,10.1-3.2c28.6-11.4,50.4-30,64.8-55.5
			C248.3,168.6,253.6,143,250.4,116.5z M194.8,39.3c-4.2,2.1-8.6,2.1-12.3,0.2c-3.6-1.8-6.2-5.3-6.9-9.3c-1.2-6.7,0.6-9.5,3.7-11.7
			c3.1-2.2,6-3.3,9.1-3.3c1.5,0,3,0.3,4.6,0.8c3,0.9,6.6,2.9,8.2,10c0.7,3.2-0.4,6.1-2.3,10.6c0,0.1-0.1,0.1-0.1,0.2
			c-1.2,0.6-2.2,1.4-3,2C195.4,38.9,195,39.2,194.8,39.3z"/>
	</g>
</g>
</svg>
